<?xml version="1.0" encoding="UTF-8" standalone="no"?>
<!DOCTYPE svg PUBLIC "-//W3C//DTD SVG 1.1//EN"
 "http://www.w3.org/Graphics/SVG/1.1/DTD/svg11.dtd">
<!-- Generated by graphviz version 2.50.0 (0)
 -->
<!-- Pages: 1 -->
<svg width="782pt" height="116pt"
 viewBox="0.00 0.00 782.00 116.00" xmlns="http://www.w3.org/2000/svg" xmlns:xlink="http://www.w3.org/1999/xlink">
<g id="graph0" class="graph" transform="scale(1 1) rotate(0) translate(4 112)">
<polygon fill="white" stroke="transparent" points="-4,4 -4,-112 778,-112 778,4 -4,4"/>
<!-- 1A -->
<g id="node1" class="node">
<title>1A</title>
<ellipse fill="none" stroke="black" cx="27" cy="-90" rx="27" ry="18"/>
<text text-anchor="middle" x="27" y="-86.3" font-family="Times New Roman,serif" font-size="14.00">1A</text>
</g>
<!-- 2A -->
<g id="node3" class="node">
<title>2A</title>
<ellipse fill="none" stroke="black" cx="27" cy="-18" rx="27" ry="18"/>
<text text-anchor="middle" x="27" y="-14.3" font-family="Times New Roman,serif" font-size="14.00">2A</text>
</g>
<!-- 1A&#45;&gt;2A -->
<g id="edge1" class="edge">
<title>1A&#45;&gt;2A</title>
<path fill="none" stroke="black" d="M27,-71.7C27,-63.98 27,-54.71 27,-46.11"/>
<polygon fill="black" stroke="black" points="30.5,-46.1 27,-36.1 23.5,-46.1 30.5,-46.1"/>
</g>
<!-- 1B -->
<g id="node2" class="node">
<title>1B</title>
<ellipse fill="none" stroke="black" cx="99" cy="-90" rx="27" ry="18"/>
<text text-anchor="middle" x="99" y="-86.3" font-family="Times New Roman,serif" font-size="14.00">1B</text>
</g>
<!-- 2B -->
<g id="node4" class="node">
<title>2B</title>
<ellipse fill="none" stroke="black" cx="171" cy="-90" rx="27" ry="18"/>
<text text-anchor="middle" x="171" y="-86.3" font-family="Times New Roman,serif" font-size="14.00">2B</text>
</g>
<!-- 3A -->
<g id="node5" class="node">
<title>3A</title>
<ellipse fill="none" stroke="black" cx="243" cy="-90" rx="27" ry="18"/>
<text text-anchor="middle" x="243" y="-86.3" font-family="Times New Roman,serif" font-size="14.00">3A</text>
</g>
<!-- 3B -->
<g id="node6" class="node">
<title>3B</title>
<ellipse fill="none" stroke="black" cx="315" cy="-90" rx="27" ry="18"/>
<text text-anchor="middle" x="315" y="-86.3" font-family="Times New Roman,serif" font-size="14.00">3B</text>
</g>
<!-- 4A -->
<g id="node7" class="node">
<title>4A</title>
<ellipse fill="none" stroke="black" cx="387" cy="-90" rx="27" ry="18"/>
<text text-anchor="middle" x="387" y="-86.3" font-family="Times New Roman,serif" font-size="14.00">4A</text>
</g>
<!-- 4B -->
<g id="node8" class="node">
<title>4B</title>
<ellipse fill="none" stroke="black" cx="459" cy="-90" rx="27" ry="18"/>
<text text-anchor="middle" x="459" y="-86.3" font-family="Times New Roman,serif" font-size="14.00">4B</text>
</g>
<!-- 5A -->
<g id="node9" class="node">
<title>5A</title>
<ellipse fill="none" stroke="black" cx="531" cy="-90" rx="27" ry="18"/>
<text text-anchor="middle" x="531" y="-86.3" font-family="Times New Roman,serif" font-size="14.00">5A</text>
</g>
<!-- 5B -->
<g id="node10" class="node">
<title>5B</title>
<ellipse fill="none" stroke="black" cx="603" cy="-90" rx="27" ry="18"/>
<text text-anchor="middle" x="603" y="-86.3" font-family="Times New Roman,serif" font-size="14.00">5B</text>
</g>
<!-- 6A -->
<g id="node11" class="node">
<title>6A</title>
<ellipse fill="none" stroke="black" cx="675" cy="-90" rx="27" ry="18"/>
<text text-anchor="middle" x="675" y="-86.3" font-family="Times New Roman,serif" font-size="14.00">6A</text>
</g>
<!-- 6B -->
<g id="node12" class="node">
<title>6B</title>
<ellipse fill="none" stroke="black" cx="747" cy="-90" rx="27" ry="18"/>
<text text-anchor="middle" x="747" y="-86.3" font-family="Times New Roman,serif" font-size="14.00">6B</text>
</g>
</g>
</svg>
